#!OML:ASF F:\VICON\USERDATA\INSTALL\rory3\rory3.ASF
:FULLY-SPECIFIED
:DEGREES
157
root -0.057870494256931304 17.701849595674897 54.27702684799927 -2.4518390303955373 -4.104214057115901 -2.9430369004714407
lfemur -19.192943514914518 -0.5914793990071394 -21.060084439577796
ltibia 23.707733703673618
lfoot 2.887534168906961 -1.9739299720808923
ltoes -1.0698448653666244
rfemur -16.451252760925776 2.353203875792607 24.073842653894758
rtibia 38.688034063792884
rfoot -5.528031479619482 -7.492376481148522
rtoes 5.3049766606657
lowerback 11.029640267769258 0.7626184303551313 2.2916147810812793
upperback 0.4258782791214593 1.4289306677706608 1.26024131657056
thorax -5.957985374482492 0.6232775951105755 -0.6928255463430242
lowerneck -16.169605979116497 -2.8345592849398304 -3.3836279015619937
upperneck 22.129779999458066 -3.36095593831018 1.1374323811841476
head 9.531099192754036 -1.685526545632447 0.8538045892138734
lclavicle 1.4498809361281008e-16 2.354490621447043e-16
lhumerus -33.46019203487569 5.672111960132796 78.93140738278122
lradius 25.18886869618405
lwrist 3.6938755871138484
lhand -28.09117040357364 21.111960492670953
lfingers 7.12502
lthumb -1.617752556422322 51.07622355714094
rclavicle 1.471009921435153e-16 2.3709878678116496e-16
rhumerus -26.976262651661532 -20.485846833838423 -75.03750298839596
rradius 18.68793101076912
rwrist 9.393485641726123
rhand -18.385632651519153 23.47004233514702
rfingers 7.12502
rthumb 8.055531951308307 -7.163476999414411
158
root -0.06483632390264454 17.711519086145124 54.55620161224151 -2.59469850948816 -3.898031273686542 -2.655603048322858
lfemur -18.231099273552275 -0.595647255001547 -21.61453611903047
ltibia 23.933780912150752
lfoot 3.996372284862555 -2.801521251782153
ltoes -1.0066639293263226
rfemur -17.14757896008618 2.028966877925832 23.919617367655594
rtibia 38.55627265518222
rfoot -6.071458446421904 -7.635390650938765
rtoes 5.59008887983128
lowerback 11.221561499375408 0.6504460622211794 2.0495444116118904
upperback 0.506739454478633 1.238880281137861 1.2512170463291707
thorax -5.904677278819876 0.5286152568822932 -0.47788130251799443
lowerneck -16.176693500318734 -2.8328276095070097 -3.395491094310664
upperneck 22.12273676975126 -3.361183936218919 1.1742258966433234
head 9.522327723015529 -1.6871504840590514 0.8728808100535954
lclavicle 1.4484555955868889e-16 2.353387711576637e-16
lhumerus -33.111308626810214 5.584592065382772 79.07369628417854
lradius 25.046545981053352
lwrist 4.169953550136121
lhand -28.218954696657118 20.92238613259504
lfingers 7.12502
lthumb -1.712359752934887 50.98950066403961
rclavicle 1.4672353325926625e-16 2.3680853071187135e-16
rhumerus -26.875710143966117 -20.1666359702227 -75.23986487038584
rradius 18.720633735217145
rwrist 9.280691387242786
rhand -18.310515530260506 23.472881211580766
rfingers 7.12502
rthumb 8.07814245758973 -7.065290549277194
159
root -0.07519638990812944 17.718032559159298 54.712009988385326 -2.674456188253972 -3.8749493891534046 -2.723657530277483
lfemur -17.16393353149877 -0.3996088731218892 -21.791057086462203
ltibia 24.16521080257781
lfoot 4.89338864248741 -3.582472626115344
ltoes -0.29275518635520514
rfemur -17.719348734421104 2.0949014527767744 24.126451966125522
rtibia 38.09829099523967
rfoot -6.524053070353813 -7.731426769637425
rtoes 6.417908572305177
lowerback 11.417787281593252 0.6082985450632883 2.0937139696661866
upperback 0.5552233510476272 1.1745533405007342 1.285708958729541
thorax -5.8932721031127375 0.4939053900956385 -0.3402033783255344
lowerneck -16.16534312618783 -2.8312237366967326 -3.417992008364279
upperneck 22.11305973907523 -3.353563277019664 1.175854389914575
head 9.518485541861857 -1.6856031378260636 0.8783478466046349
lclavicle 1.4519348908873104e-16 2.3560632564907556e-16
lhumerus -32.71420016612991 5.377270487008871 79.28228295035315
lradius 24.87909969959257
lwrist 4.252538508029504
lhand -28.301670946295218 21.040639189369333
lfingers 7.12502
lthumb -1.7951054445362777 51.19068493898354
rclavicle 1.469790584008881e-16 2.3700500030096596e-16
rhumerus -26.77975830111685 -19.864837008680627 -75.42209253008174
rradius 18.750497719287694
rwrist 9.335033280047195
rhand -18.21726287742859 23.4336214502264
rfingers 7.12502
rthumb 8.099511119782898 -6.826970468906512
160
root -0.08493901730801323 17.743434908403515 54.71158334976779 -2.6644331067027576 -3.858824412284526 -2.6548137750363034
lfemur -16.244084214502177 -0.2997522100295513 -22.06697306403958
ltibia 23.63344745331282
lfoot 6.0241228143342385 -4.207289622664735
ltoes -0.034887676926845135
rfemur -18.147733966712096 2.3320297572398143 24.236018235065
rtibia 37.27261370342484
rfoot -6.656068553618048 -7.631278835671848
rtoes 6.400748012468227
lowerback 11.463182409048931 0.5844451913130004 2.038924599990514
upperback 0.5749127669165623 1.1126465169945938 1.3072090223463313
thorax -5.838275522045271 0.4705319792260366 -0.18048927879430177
lowerneck -16.148217641083075 -2.826691410916579 -3.4596398901058034
upperneck 22.13135676289021 -3.3461234875532453 1.2087282790815432
head 9.526646104773606 -1.6828124243647922 0.8950561936984873
lclavicle 1.4529570039525607e-16 2.3568426110755996e-16
lhumerus -32.33963745760671 5.428318880503873 79.38172053244675
lradius 24.79736547836485
lwrist 4.443860118431705
lhand -28.466939748667052 20.939376896288298
lfingers 7.12502
lthumb -1.9517606125946734 51.07993424790839
rclavicle 1.4685275943203157e-16 2.3690789550930943e-16
rhumerus -26.629138910069347 -19.45915102687546 -75.67662051544828
rradius 18.82908635041541
rwrist 9.432321900590214
rhand -18.12992130247767 23.32574922850095
rfingers 7.12502
rthumb 8.110453552931581 -6.868832603116214
161
root -0.10525494903585403 17.745456351919326 54.791943302762704 -2.6139170583931657 -3.904631780453889 -2.55636307690193
lfemur -15.278524113394754 -0.09899114896878136 -22.30391575753584
ltibia 23.090456651478434
lfoot 6.570147072402347 -4.92812444367253
ltoes -0.5249076576432872
rfemur -18.437403179167088 2.6356870253117997 24.34184505227285
rtibia 36.54567308650193
rfoot -6.648779116276458 -7.397386964478069
rtoes 5.979052206093764
lowerback 11.53390299639755 0.5883125153706226 1.9677823087162571
upperback 0.5660534692098764 1.1086116136828141 1.3118559291527834
thorax -5.858068214981866 0.47223415012902514 -0.0531797918940361
lowerneck -16.12604657686542 -2.8196787117554956 -3.477215321002778
upperneck 22.082895059265987 -3.331133321398824 1.2182201240099508
head 9.50758978540221 -1.6768983408656728 0.9048766490113063
lclavicle 1.457409077453434e-16 2.3602611043733006e-16
lhumerus -32.00703728375088 5.332743640742228 79.50616136806221
lradius 24.969911162750368
lwrist 5.06196639139243
lhand -28.581384257421654 20.584647915895815
lfingers 7.12502
lthumb -2.034545318776963 50.89129036061818
rclavicle 1.4654472963394268e-16 2.366710153708618e-16
rhumerus -26.41340335355769 -18.894858769824832 -75.98784483020938
rradius 18.97105210565616
rwrist 9.307790955590757
rhand -18.05274388402474 23.225546944508366
rfingers 7.12502
rthumb 8.07243069119541 -6.963382091133464
